<svg xmlns="http://www.w3.org/2000/svg" viewBox="0 0 512 512">
  <rect width="512" height="512" rx="64" fill="#2563eb"/>
  <g fill="white">
    <!-- Barcode lines -->
    <rect x="80" y="140" width="8" height="160" rx="2"/>
    <rect x="100" y="140" width="16" height="160" rx="2"/>
    <rect x="128" y="140" width="8" height="160" rx="2"/>
    <rect x="148" y="140" width="24" height="160" rx="2"/>
    <rect x="184" y="140" width="8" height="160" rx="2"/>
    <rect x="204" y="140" width="16" height="160" rx="2"/>
    <rect x="232" y="140" width="8" height="160" rx="2"/>
    <rect x="252" y="140" width="8" height="160" rx="2"/>
    <rect x="272" y="140" width="24" height="160" rx="2"/>
    <rect x="308" y="140" width="8" height="160" rx="2"/>
    <rect x="328" y="140" width="16" height="160" rx="2"/>
    <rect x="356" y="140" width="8" height="160" rx="2"/>
    <rect x="376" y="140" width="24" height="160" rx="2"/>
    <rect x="412" y="140" width="8" height="160" rx="2"/>
    <rect x="432" y="140" width="8" height="160" rx="2"/>
    <!-- Price tag -->
    <text x="256" y="380" font-family="Arial, sans-serif" font-size="72" font-weight="bold" text-anchor="middle">Rp</text>
  </g>
</svg>
